<svg width="152" height="80" viewBox="0 0 152 80" fill="none" xmlns="http://www.w3.org/2000/svg">
<circle cx="40" cy="40" r="24" fill="white"/>
<rect x="29.2" y="26.8" width="22.2" height="26.4" fill="#EDE525"/>
<path d="M51.4 31.3L46.6 26.8H51.4V31.3Z" fill="white"/>
<path d="M31.6 31.0001H46" stroke="#999300" stroke-linecap="round"/>
<path d="M31.6 35.2H49" stroke="#999300" stroke-linecap="round"/>
<path d="M31.6 39.4H41.8" stroke="#999300" stroke-linecap="round"/>
<path d="M31.6 48.0999H46" stroke="#999300" stroke-linecap="round"/>
<g clip-path="url(#clip0_2_157)">
<path d="M54.9873 45.5027C55.1624 45.3927 55.2167 45.1551 55.105 44.9872L54.4449 43.9364C54.3422 43.7629 54.1046 43.7087 53.9294 43.8187L53.1039 44.3341L54.1618 46.0181M47.6603 47.7568L47.3472 49.1278L48.7182 49.4408L53.6858 46.3172L52.6279 44.6331L47.6603 47.7568Z" fill="black"/>
</g>
<path d="M90.4801 32.4545V47H87.4972L81.7088 38.6051H81.6165V47H78.1009V32.4545H81.1264L86.8509 40.8352H86.9716V32.4545H90.4801ZM97.783 47.206C96.6372 47.206 95.6523 46.9716 94.8285 46.5028C94.0094 46.0294 93.3772 45.3712 92.9322 44.5284C92.4918 43.6809 92.2717 42.6984 92.2717 41.581C92.2717 40.4588 92.4918 39.4763 92.9322 38.6335C93.3772 37.786 94.0094 37.1278 94.8285 36.6591C95.6523 36.1856 96.6372 35.9489 97.783 35.9489C98.9289 35.9489 99.9113 36.1856 100.73 36.6591C101.554 37.1278 102.186 37.786 102.627 38.6335C103.072 39.4763 103.294 40.4588 103.294 41.581C103.294 42.6984 103.072 43.6809 102.627 44.5284C102.186 45.3712 101.554 46.0294 100.73 46.5028C99.9113 46.9716 98.9289 47.206 97.783 47.206ZM97.8043 44.5852C98.221 44.5852 98.5737 44.4574 98.8626 44.2017C99.1514 43.946 99.3716 43.5909 99.5231 43.1364C99.6793 42.6818 99.7575 42.1562 99.7575 41.5597C99.7575 40.9536 99.6793 40.4233 99.5231 39.9688C99.3716 39.5142 99.1514 39.1591 98.8626 38.9034C98.5737 38.6477 98.221 38.5199 97.8043 38.5199C97.3735 38.5199 97.0089 38.6477 96.7106 38.9034C96.417 39.1591 96.1921 39.5142 96.0359 39.9688C95.8844 40.4233 95.8086 40.9536 95.8086 41.5597C95.8086 42.1562 95.8844 42.6818 96.0359 43.1364C96.1921 43.5909 96.417 43.946 96.7106 44.2017C97.0089 44.4574 97.3735 44.5852 97.8043 44.5852ZM111.231 36.0909V38.6477H104.349V36.0909H111.231ZM105.791 33.4773H109.264V43.5696C109.264 43.7827 109.297 43.9555 109.363 44.0881C109.434 44.2159 109.536 44.3082 109.669 44.3651C109.801 44.4171 109.96 44.4432 110.145 44.4432C110.277 44.4432 110.417 44.4313 110.564 44.4077C110.715 44.3793 110.829 44.3556 110.904 44.3366L111.43 46.8438C111.264 46.8911 111.03 46.9503 110.727 47.0213C110.429 47.0923 110.071 47.1373 109.654 47.1562C108.84 47.1941 108.142 47.0994 107.559 46.8722C106.982 46.6402 106.539 46.2803 106.231 45.7926C105.928 45.3049 105.781 44.6918 105.791 43.9531V33.4773ZM117.985 47.206C116.844 47.206 115.859 46.9811 115.031 46.5312C114.207 46.0767 113.573 45.4304 113.127 44.5923C112.687 43.7495 112.467 42.7481 112.467 41.5881C112.467 40.4612 112.69 39.4763 113.135 38.6335C113.58 37.786 114.207 37.1278 115.017 36.6591C115.826 36.1856 116.78 35.9489 117.879 35.9489C118.655 35.9489 119.366 36.0696 120.01 36.3111C120.654 36.5526 121.21 36.91 121.679 37.3835C122.147 37.857 122.512 38.4418 122.772 39.1378C123.033 39.8291 123.163 40.6222 123.163 41.517V42.3835H113.681V40.3665H119.931C119.927 39.9972 119.839 39.6681 119.669 39.3793C119.498 39.0904 119.264 38.8655 118.966 38.7045C118.672 38.5388 118.333 38.456 117.95 38.456C117.562 38.456 117.214 38.5436 116.906 38.7188C116.598 38.8892 116.354 39.1236 116.174 39.4219C115.994 39.7154 115.9 40.0492 115.89 40.4233V42.4759C115.89 42.9209 115.978 43.3116 116.153 43.6477C116.328 43.9792 116.577 44.2372 116.899 44.4219C117.221 44.6065 117.604 44.6989 118.049 44.6989C118.357 44.6989 118.636 44.6562 118.887 44.571C119.138 44.4858 119.354 44.3603 119.534 44.1946C119.714 44.0289 119.849 43.8253 119.939 43.5838L123.127 43.6761C122.995 44.3911 122.704 45.0137 122.254 45.544C121.809 46.0696 121.224 46.4792 120.5 46.7727C119.775 47.0616 118.937 47.206 117.985 47.206ZM134.461 39.4219L131.272 39.5071C131.239 39.2798 131.149 39.0786 131.002 38.9034C130.855 38.7235 130.664 38.5838 130.427 38.4844C130.195 38.3802 129.925 38.3281 129.617 38.3281C129.215 38.3281 128.871 38.4086 128.587 38.5696C128.308 38.7306 128.171 38.9484 128.175 39.223C128.171 39.4361 128.256 39.6207 128.431 39.777C128.611 39.9332 128.931 40.0587 129.39 40.1534L131.492 40.5511C132.581 40.7595 133.391 41.1051 133.921 41.5881C134.456 42.071 134.726 42.7102 134.731 43.5057C134.726 44.2538 134.504 44.9048 134.063 45.4588C133.628 46.0128 133.031 46.4437 132.273 46.7514C131.516 47.0545 130.649 47.206 129.674 47.206C128.116 47.206 126.888 46.8864 125.988 46.2472C125.093 45.6032 124.582 44.7415 124.454 43.6619L127.884 43.5767C127.96 43.9744 128.156 44.2775 128.474 44.4858C128.791 44.6941 129.196 44.7983 129.688 44.7983C130.133 44.7983 130.496 44.7154 130.775 44.5497C131.054 44.384 131.196 44.1638 131.201 43.8892C131.196 43.643 131.087 43.4465 130.874 43.2997C130.661 43.1482 130.327 43.0298 129.873 42.9446L127.969 42.5824C126.876 42.3835 126.061 42.0166 125.526 41.4815C124.991 40.9418 124.726 40.2552 124.731 39.4219C124.726 38.6927 124.92 38.0701 125.313 37.554C125.706 37.0331 126.265 36.6354 126.989 36.3608C127.714 36.0862 128.568 35.9489 129.553 35.9489C131.031 35.9489 132.195 36.259 133.048 36.8793C133.9 37.4948 134.371 38.3423 134.461 39.4219Z" fill="white"/>
<defs>
<clipPath id="clip0_2_157">
<rect width="9" height="9" fill="white" transform="translate(48.0037 41.2) rotate(12.8638)"/>
</clipPath>
</defs>
</svg>
